<?xml version="1.0" standalone="no"?>
<!DOCTYPE svg PUBLIC "-//W3C//DTD SVG 20010904//EN"
 "http://www.w3.org/TR/2001/REC-SVG-20010904/DTD/svg10.dtd">
<svg version="1.0" xmlns="http://www.w3.org/2000/svg"
 width="512.000000pt" height="512.000000pt" viewBox="0 0 512.000000 512.000000"
 preserveAspectRatio="xMidYMid meet">
<metadata>
Created by potrace 1.14, written by Peter Selinger 2001-2017
</metadata>
<g transform="translate(0.000000,512.000000) scale(0.100000,-0.100000)"
fill="#000000" stroke="none">
<path d="M1654 4849 c-66 -19 -97 -90 -67 -152 8 -16 13 -30 11 -31 -2 -1 -45
-20 -95 -41 -119 -48 -403 -210 -433 -245 -3 -3 -34 -28 -70 -55 -145 -110
-328 -312 -443 -491 -111 -171 -228 -449 -262 -624 -2 -8 -8 -33 -13 -55 -12
-43 -18 -73 -28 -144 -4 -25 -8 -55 -10 -66 -22 -113 -22 -530 0 -680 16 -112
18 -139 7 -158 -27 -54 -14 -121 58 -289 87 -205 102 -350 62 -598 -14 -83 -6
-343 13 -425 8 -38 36 -112 62 -164 79 -160 214 -276 393 -339 68 -23 91 -26
221 -26 132 -1 224 5 290 19 14 3 39 8 55 11 123 22 282 73 380 121 43 22 79
33 95 30 14 -2 70 -14 125 -25 366 -77 803 -71 1160 17 666 164 1195 569 1468
1124 156 317 230 647 231 1032 0 266 -29 480 -99 717 -210 708 -767 1232
-1530 1438 -44 12 -89 24 -100 26 -11 2 -31 6 -45 9 -52 11 -80 16 -180 30
-25 3 -58 8 -75 11 -58 9 -470 12 -535 4 -218 -27 -185 -28 -285 0 -86 24
-301 36 -361 19z"/>
</g>
</svg>
